PathFileType	4	(X/Y/Z)	/Users/mathieubourgeois/Desktop/Analyse/Traitement/Sujet_01/Transformed_Static_Sujet_01_Tpose.trc
DataRate	CameraRate	NumFrames	NumMarkers	Units	OrigDataRate	OrigDataStartFrame	OrigNumFrames
120.000000	120.000000	4	35	mm	120.000000	197	226
Frame#	Time	LFHD			RFHD			LBHD			RBHD			RSHO			LSHO			CLAV			STRN			T10			RHUM			LHUM			LRAD			RRAD			RWRA			RWRB			RCAR			LCAR			LWRA			LWRB			RFWT			LFWT			LBWT			RBWT			RKNI			LKNI			RKNE			LKNE			RANE			RANI			LANI			LANE			LHEE			RHEE			RTOE			LTOE			
		X1	Y1	Z1	X2	Y2	Z2	X3	Y3	Z3	X4	Y4	Z4	X5	Y5	Z5	X6	Y6	Z6	X7	Y7	Z7	X8	Y8	Z8	X9	Y9	Z9	X10	Y10	Z10	X11	Y11	Z11	X12	Y12	Z12	X13	Y13	Z13	X14	Y14	Z14	X15	Y15	Z15	X16	Y16	Z16	X17	Y17	Z17	X18	Y18	Z18	X19	Y19	Z19	X20	Y20	Z20	X21	Y21	Z21	X22	Y22	Z22	X23	Y23	Z23	X24	Y24	Z24	X25	Y25	Z25	X26	Y26	Z26	X27	Y27	Z27	X28	Y28	Z28	X29	Y29	Z29	X30	Y30	Z30	X31	Y31	Z31	X32	Y32	Z32	X33	Y33	Z33	X34	Y34	Z34	X35	Y35	Z35	

198	1.641666666666667	5.672451019287092	1568.687255859375	139.264907836914	26.92463684082028	1555.275634765625	262.5977783203124	-147.4669952392578	1567.88232421875	163.0120544433593	-121.1384582519532	1553.993530273438	294.7282409667968	-113.2017211914063	1407.60546875	347.5743713378905	-139.7344512939453	1399.400024414062	99.1326904296874	-54.02833175659182	1363.827758789062	195.7348175048827	-14.0904817581177	1263.07373046875	206.1487426757812	-221.2462310791016	1211.523681640625	239.812286376953	-96.21517181396491	1228.13818359375	587.3378906249999	-126.9532089233398	1240.05517578125	-158.3371429443361	-172.836196899414	1277.827392578125	-176.9774322509767	-147.5686645507813	1263.909057617188	603.8048095703124	-152.0541992187501	1270.28369140625	826.0418701171874	-146.0329437255861	1209.234741210938	820.3379516601561	-193.0282440185548	1202.390625	899.8305053710936	-208.6710205078124	1233.384887695312	-474.2156372070313	-168.0186309814453	1285.900390625	-400.2767028808594	-174.6922912597656	1219.81787109375	-391.5693664550782	-37.75593185424809	930.0975341796875	343.3310852050781	-41.74999237060548	943.020263671875	117.0727081298828	-225.3224639892578	946.6641235351562	184.6076354980468	-217.4368591308594	955.910888671875	301.6636657714843	-177.7340087890625	435.3414306640625	272.96630859375	-147.1851196289063	473.7281799316406	213.4306030273437	-159.2794799804688	470.4554138183594	389.8407592773437	-166.3307495117188	458.8566589355469	85.72829437255855	-189.0467376708985	120.8608016967774	379.2316589355469	-175.25537109375	123.8461151123047	300.7218627929688	-178.3491516113282	124.0863418579102	190.3930358886718	-193.7391052246094	113.2823028564453	115.5037841796875	-251.819808959961	64.02087402343751	163.312744140625	-248.80615234375	75.16457366943361	345.2571105957031	-1.596040487289472	61.60966110229494	354.8083190917969	0.7418289780616599	56.79256820678712	131.6089782714844	
199	1.65	5.715021610259993	1568.706787109375	139.2531738281249	26.99398612976071	1555.245483398438	262.5639648437499	-147.4232635498047	1567.897216796875	163.0224761962889	-121.0630035400391	1553.956176757812	294.7490234374999	-113.1497421264649	1407.607299804688	347.5832214355468	-139.6630706787109	1399.392700195312	99.12519836425771	-53.97249984741213	1363.77880859375	195.7576446533202	-14.05327033996585	1263.040771484375	206.1552581787109	-221.2029724121094	1211.545166015625	239.8035583496093	-96.20149230957038	1228.110229492188	587.3398437499999	-126.854866027832	1240.016357421875	-158.3276824951173	-172.730224609375	1277.791259765625	-176.979461669922	-147.5594940185548	1263.877319335938	603.8026733398436	-152.0218658447267	1270.2294921875	826.0334472656249	-146.0379791259767	1209.190673828125	820.3139038085936	-193.0099182128907	1202.339477539062	899.8142089843749	-208.5465393066406	1233.275512695312	-474.2025451660157	-167.894546508789	1285.816528320312	-400.2782592773438	-175.5514678955078	1220.10302734375	-390.9298706054688	-37.76284027099614	930.09619140625	343.3274841308593	-41.7383270263672	943.0225830078125	117.0676498413085	-225.3098297119141	946.6727905273438	184.5845947265624	-217.4366760253907	955.9327392578125	301.6506652832031	-177.7202301025391	435.3390502929688	272.9520263671875	-147.1627044677735	473.724609375	213.4210205078124	-159.2734680175782	470.4521179199219	389.8195190429687	-166.3281402587891	458.84912109375	85.71054840087886	-189.0559844970704	120.8563232421875	379.2266845703125	-175.2610626220703	123.8484268188477	300.7261962890625	-178.35693359375	124.0767822265625	190.3931884765625	-193.7528686523438	113.2864608764648	115.5111846923828	-251.8252410888672	64.02510833740236	163.3113403320312	-248.8071899414063	75.16732788085939	345.2683105468749	-1.603106141090437	61.61368179321291	354.8147277832031	0.7451115250587302	56.79769515991212	131.5948944091797	
200	1.658333333333333	5.74963188171385	1568.70947265625	139.2456970214843	27.06151580810544	1555.229736328125	262.5628356933593	-147.35693359375	1567.909423828125	163.0276031494139	-120.9738464355469	1553.92333984375	294.7660217285155	-113.0852966308594	1407.613037109375	347.5786132812499	-139.5995025634766	1399.386596679688	99.11746215820303	-53.92744445800783	1363.7646484375	195.7503662109374	-14.01790332794192	1263.0224609375	206.1606292724609	-221.1891326904297	1211.554321289062	239.7909851074218	-96.15565490722663	1228.092651367188	587.3166503906249	-126.7800979614258	1239.976318359375	-158.3184661865236	-172.6199645996093	1277.76806640625	-176.9838104248048	-147.5280151367188	1263.86181640625	603.7854003906249	-151.9949188232423	1270.17724609375	826.0220947265624	-146.021209716797	1209.150024414062	820.3026733398436	-193.0054016113282	1202.288940429688	899.7937622070311	-208.4069519042968	1233.2080078125	-474.1899719238282	-167.7650299072265	1285.732666015625	-400.2840576171876	-175.4638214111328	1220.044189453125	-390.8935852050782	-37.76464080810551	930.0814208984375	343.3249206542968	-41.72517776489259	943.0243530273438	117.0655364990234	-225.3011474609375	946.6903686523438	184.554473876953	-217.423828125	955.93603515625	301.6155090332031	-177.7233428955078	435.3452453613281	272.9451293945312	-147.1410675048828	473.7371826171875	213.4043884277343	-159.280990600586	470.4639282226562	389.8219299316406	-166.2907104492188	458.8509216308594	85.6960067749023	-189.0534057617188	120.8530426025391	379.2251586914062	-175.2529602050782	123.8492660522461	300.7161865234375	-178.3575439453125	124.1043853759766	190.3954620361328	-193.7545928955078	113.2802047729492	115.5131378173828	-251.8263244628907	64.0264358520508	163.3113403320312	-248.8076477050782	75.18233489990236	345.2548828124999	-1.593421220779462	61.60995101928713	354.8082580566406	0.7458297014236289	56.80879592895509	131.6106872558594	
201	1.666666666666667	5.810982227325423	1568.725341796875	139.2620544433593	27.15925025939938	1555.195068359375	262.5450744628905	-147.3013458251953	1567.923461914062	163.0749969482421	-120.8986129760743	1553.901611328125	294.7904663085936	-113.0380935668946	1407.625732421875	347.5807189941405	-139.5409393310547	1399.398193359375	99.10504913330068	-53.90673828125002	1363.732177734375	195.8007049560546	-13.98515415191653	1263.011962890625	206.1598510742187	-221.1591339111328	1211.562622070312	239.7706298828124	-96.14177703857429	1228.054077148438	587.2905273437499	-126.6910629272461	1239.945678710938	-158.3073272705079	-172.5141906738281	1277.732788085938	-176.985809326172	-147.5030059814454	1263.836059570312	603.7713012695311	-151.9596557617189	1270.138549804688	826.0181884765624	-146.0187530517579	1209.106201171875	820.2876586914061	-192.9852752685548	1202.243041992188	899.7828979492186	-208.2465209960937	1233.098388671875	-474.1906433105469	-167.6387634277343	1285.642700195312	-400.2840576171876	-175.3524322509765	1219.952880859375	-390.8905639648438	-37.7599143981934	930.0784912109375	343.2963256835937	-41.70531845092775	943.0419921875	117.0504455566406	-225.2925415039063	946.7055053710938	184.5431060791015	-217.4301147460938	955.9453125	301.5645751953124	-177.71044921875	435.3471984863281	272.9196472167969	-147.1365661621094	473.7316284179688	213.3816986083984	-159.2838439941407	470.4697570800781	389.8142089843749	-166.2686157226562	458.8583068847656	85.68183898925777	-189.0449981689454	120.8610000610352	379.2186279296875	-175.2428283691407	123.8566207885742	300.7186279296875	-178.3518218994141	124.0981521606445	190.3829650878906	-193.7418518066406	113.2917556762695	115.5040969848633	-251.8144683837891	64.0287551879883	163.3023376464843	-248.8052978515625	75.18113708496095	345.2578124999999	-1.602033495903059	61.60549926757815	354.8019714355469	0.7474249601363975	56.81322860717774	131.6180725097656	
